<svg width="14" height="10" viewBox="0 0 14 10" fill="none" xmlns="http://www.w3.org/2000/svg">
<path d="M1.05 0C0.887271 0 0.733304 0.0391625 0.596094 0.106027L6.50781 6.20536C6.78262 6.48925 7.20593 6.48927 7.48125 6.20536L13.4039 0.106027C13.2667 0.0391625 13.1127 0 12.95 0H1.05ZM13.8961 0.608259L9.45547 5.18973L13.8961 9.39732C13.963 9.25618 14 9.09641 14 8.92857V1.07143C14 0.905379 13.9616 0.74827 13.8961 0.608259ZM0.0984375 0.613828C0.0348495 0.752159 0 0.908007 0 1.07143V8.92857C0 9.09641 0.0370475 9.25618 0.103906 9.39732L4.53906 5.19532L0.0984375 0.613828ZM8.95781 5.69753L7.97891 6.70759C7.4383 7.26504 6.55054 7.2658 6.01016 6.70759L5.03672 5.70313L0.607031 9.89953C0.741449 9.9631 0.891597 10 1.05 10H12.95C13.1084 10 13.2586 9.96311 13.393 9.89955L8.95781 5.69753Z" fill="#2E2E2E"/>
</svg>
