<svg width="10" height="12" viewBox="0 0 10 12" fill="none" xmlns="http://www.w3.org/2000/svg">
<path d="M9.375 0H0.625C0.25 0 0 0.24 0 0.6V11.4C0 11.76 0.25 12 0.625 12H9.375C9.75 12 10 11.76 10 11.4V0.6C10 0.24 9.75 0 9.375 0ZM1.25 1.2H5V3.6H1.25V1.2ZM8.125 10.8H1.875C1.5 10.8 1.25 10.56 1.25 10.2C1.25 9.84 1.5 9.6 1.875 9.6H8.125C8.5 9.6 8.75 9.84 8.75 10.2C8.75 10.56 8.5 10.8 8.125 10.8ZM8.125 8.4H1.875C1.5 8.4 1.25 8.16 1.25 7.8C1.25 7.44 1.5 7.2 1.875 7.2H8.125C8.5 7.2 8.75 7.44 8.75 7.8C8.75 8.16 8.5 8.4 8.125 8.4ZM8.125 6H1.875C1.5 6 1.25 5.76 1.25 5.4C1.25 5.04 1.5 4.8 1.875 4.8H8.125C8.5 4.8 8.75 5.04 8.75 5.4C8.75 5.76 8.5 6 8.125 6Z" fill="#2E2E2E"/>
</svg>
