<svg width="236" height="290" viewBox="0 0 236 290" fill="none" xmlns="http://www.w3.org/2000/svg">
<g clip-path="url(#clip0_610_172)">
<path d="M168.002 181.442L174.424 183.693L180.461 193.095L182.81 191.587L176.773 182.184L177.398 175.408L174.741 171.271L165.345 177.305L168.002 181.442Z" fill="#F8F8F8" fill-opacity="0.1"/>
<path d="M171.843 166.758L162.446 172.792L163.895 175.048L173.292 169.014L171.843 166.758Z" fill="#F8F8F8" fill-opacity="0.1"/>
<path d="M184.445 170.883L190.867 173.134L196.905 182.536L199.254 181.027L193.216 171.625L193.841 164.849L191.184 160.711L181.788 166.745L184.445 170.883Z" fill="#F8F8F8" fill-opacity="0.1"/>
<path d="M135.115 202.561L141.537 204.812L147.574 214.214L149.924 212.706L143.886 203.304L144.511 196.527L141.854 192.39L132.458 198.424L135.115 202.561Z" fill="#F8F8F8" fill-opacity="0.1"/>
<path d="M151.558 192.002L157.98 194.253L164.018 203.655L166.367 202.146L160.329 192.744L160.954 185.968L158.297 181.83L148.901 187.865L151.558 192.002Z" fill="#F8F8F8" fill-opacity="0.1"/>
<path d="M138.956 187.877L129.559 193.911L131.009 196.167L140.405 190.133L138.956 187.877Z" fill="#F8F8F8" fill-opacity="0.1"/>
<path d="M155.399 177.317L146.003 183.351L147.452 185.608L156.848 179.574L155.399 177.317Z" fill="#F8F8F8" fill-opacity="0.1"/>
<path d="M217.332 149.764L223.754 152.015L229.792 161.417L232.141 159.908L226.103 150.506L226.728 143.73L224.071 139.592L214.675 145.626L217.332 149.764Z" fill="#F8F8F8" fill-opacity="0.1"/>
<path d="M188.286 156.198L178.89 162.232L180.339 164.489L189.735 158.455L188.286 156.198Z" fill="#F8F8F8" fill-opacity="0.1"/>
<path d="M221.173 135.079L211.777 141.113L213.226 143.37L222.622 137.336L221.173 135.079Z" fill="#F8F8F8" fill-opacity="0.1"/>
<path d="M200.889 160.323L207.31 162.574L213.348 171.976L215.697 170.468L209.66 161.065L210.285 154.289L207.628 150.152L198.232 156.186L200.889 160.323Z" fill="#F8F8F8" fill-opacity="0.1"/>
<path d="M204.73 145.639L195.333 151.673L196.782 153.929L206.179 147.895L204.73 145.639Z" fill="#F8F8F8" fill-opacity="0.1"/>
<path d="M89.6848 111.151L80.2885 117.185L81.7376 119.442L91.1339 113.408L89.6848 111.151Z" fill="#F8F8F8" fill-opacity="0.1"/>
<path d="M73.2413 121.711L63.845 127.745L65.2942 130.001L74.6904 123.967L73.2413 121.711Z" fill="#F8F8F8" fill-opacity="0.1"/>
<path d="M106.128 100.592L96.732 106.626L98.1811 108.882L107.577 102.848L106.128 100.592Z" fill="#F8F8F8" fill-opacity="0.1"/>
<path d="M171.902 58.3536L162.506 64.3876L163.955 66.6442L173.351 60.6102L171.902 58.3536Z" fill="#F8F8F8" fill-opacity="0.1"/>
<path d="M122.572 90.0322L113.175 96.0662L114.625 98.3228L124.021 92.2888L122.572 90.0322Z" fill="#F8F8F8" fill-opacity="0.1"/>
<path d="M139.015 79.4726L129.619 85.5066L131.068 87.7632L140.464 81.7292L139.015 79.4726Z" fill="#F8F8F8" fill-opacity="0.1"/>
<path d="M155.459 68.9131L146.062 74.9471L147.512 77.2038L156.908 71.1698L155.459 68.9131Z" fill="#F8F8F8" fill-opacity="0.1"/>
<path d="M102.228 223.681L108.65 225.931L114.688 235.333L117.037 233.825L110.999 224.423L111.624 217.647L108.967 213.509L99.5708 219.543L102.228 223.681Z" fill="#F8F8F8" fill-opacity="0.1"/>
<path d="M118.671 213.121L125.093 215.372L131.131 224.774L133.48 223.265L127.442 213.863L128.068 207.087L125.411 202.95L116.014 208.984L118.671 213.121Z" fill="#F8F8F8" fill-opacity="0.1"/>
<path d="M56.7978 132.27L47.4016 138.304L48.8507 140.561L58.247 134.527L56.7978 132.27Z" fill="#F8F8F8" fill-opacity="0.1"/>
<path d="M106.069 208.996L96.6725 215.03L98.1216 217.286L107.518 211.252L106.069 208.996Z" fill="#F8F8F8" fill-opacity="0.1"/>
<path d="M122.512 198.436L113.116 204.47L114.565 206.727L123.961 200.693L122.512 198.436Z" fill="#F8F8F8" fill-opacity="0.1"/>
<path d="M177.073 74.1562C177.722 73.7396 177.924 72.8968 177.523 72.2736C177.123 71.6505 176.273 71.483 175.624 71.8996C174.976 72.3161 174.774 73.159 175.174 73.7821C175.574 74.4053 176.425 74.5728 177.073 74.1562Z" fill="#F8F8F8" fill-opacity="0.1"/>
<path d="M106.724 148.018L100.851 151.789L99.402 149.532L105.275 145.761L103.826 143.504L89.7311 152.555L91.1803 154.812L97.0529 151.041L98.5021 153.297L92.6294 157.069L94.0785 159.325L108.173 150.274L106.724 148.018Z" fill="#F8F8F8" fill-opacity="0.1"/>
<path d="M133.662 143.468L127.789 147.239L126.34 144.982L132.213 141.211L130.764 138.954L116.669 148.005L118.118 150.262L123.991 146.491L125.44 148.748L119.568 152.519L121.017 154.775L135.111 145.724L133.662 143.468Z" fill="#F8F8F8" fill-opacity="0.1"/>
<path d="M127.865 134.441L121.993 138.212L120.544 135.956L126.416 132.185L124.967 129.928L110.873 138.979L112.322 141.236L118.195 137.464L119.644 139.721L113.771 143.492L115.22 145.749L129.315 136.698L127.865 134.441Z" fill="#F8F8F8" fill-opacity="0.1"/>
<path d="M112.52 157.044L106.648 160.815L105.199 158.559L111.071 154.788L109.622 152.531L95.5277 161.582L96.9768 163.839L102.849 160.067L104.299 162.324L98.426 166.095L99.8751 168.352L113.97 159.301L112.52 157.044Z" fill="#F8F8F8" fill-opacity="0.1"/>
<path d="M154.804 129.891L148.931 133.662L147.482 131.406L153.354 127.635L151.905 125.378L137.811 134.429L139.26 136.686L145.133 132.914L146.582 135.171L140.709 138.942L142.158 141.199L156.253 132.148L154.804 129.891Z" fill="#F8F8F8" fill-opacity="0.1"/>
<path d="M149.007 120.865L143.134 124.636L141.685 122.379L147.558 118.608L146.109 116.351L132.014 125.402L133.463 127.659L139.336 123.888L140.785 126.144L134.913 129.916L136.362 132.172L150.456 123.121L149.007 120.865Z" fill="#F8F8F8" fill-opacity="0.1"/>
<path d="M199.26 106.123L192.015 94.84C190.816 92.9737 191.422 90.4398 193.365 89.1923L196.888 86.9295L180.948 62.1065C180.148 60.862 178.445 60.5264 177.149 61.3584L47.9508 144.326C46.6553 145.158 46.2517 146.847 47.0509 148.091L89.076 213.534C89.8753 214.778 91.5788 215.114 92.8743 214.282L106.969 205.231L109.318 203.722L123.412 194.671L125.761 193.163L139.856 184.112L142.205 182.603L156.299 173.552L158.648 172.044L172.743 162.993L175.092 161.484L189.186 152.433L191.535 150.925L205.629 141.874L207.979 140.365L222.073 131.314C223.368 130.482 223.772 128.793 222.973 127.549L208.481 104.983L204.958 107.245C203.015 108.493 200.459 107.989 199.26 106.123ZM174.175 69.6429C176.118 68.3954 178.674 68.8989 179.872 70.7651C181.071 72.6313 180.465 75.1653 178.523 76.4128C176.58 77.6603 174.024 77.1568 172.825 75.2906C171.627 73.4244 172.232 70.8904 174.175 69.6429ZM56.7217 145.068C58.6644 143.82 61.2206 144.324 62.4191 146.19C63.6175 148.056 63.0118 150.59 61.0692 151.838C59.1265 153.085 56.5703 152.582 55.3719 150.716C54.1734 148.849 54.7791 146.316 56.7217 145.068ZM95.8486 205.997C93.906 207.245 91.3498 206.741 90.1513 204.875C88.9529 203.009 89.5585 200.475 91.5012 199.227C93.4439 197.98 96.0001 198.483 97.1985 200.349C98.397 202.216 97.7913 204.75 95.8486 205.997ZM201.633 125.317L95.9247 193.199C94.6292 194.031 92.9257 193.696 92.1265 192.451L67.4911 154.088C66.6919 152.844 67.0955 151.155 68.391 150.323L174.099 82.4407C175.395 81.6088 177.098 81.9443 177.897 83.1888L202.533 121.552C203.332 122.796 202.928 124.485 201.633 125.317ZM213.302 130.572C211.359 131.82 208.803 131.316 207.605 129.45C206.406 127.584 207.012 125.05 208.955 123.802C210.897 122.555 213.453 123.058 214.652 124.924C215.85 126.791 215.245 129.325 213.302 130.572Z" fill="#F8F8F8" fill-opacity="0.1"/>
<path d="M94.4756 190.943L200.184 123.06L175.548 84.6973L69.8401 152.58L94.4756 190.943ZM169.05 95.2445L171.399 93.736L190.238 123.072L187.889 124.581L169.05 95.2445ZM147.909 108.821L150.258 107.313L151.707 109.569L165.801 100.518L164.352 98.2615L166.701 96.753L185.54 126.089L183.191 127.598L181.742 125.341L175.869 129.112L174.42 126.856L180.293 123.085L178.843 120.828L164.749 129.879L166.198 132.136L172.071 128.364L173.52 130.621L167.647 134.392L169.096 136.649L166.747 138.157L147.909 108.821ZM126.767 122.398L129.116 120.889L130.565 123.146L144.66 114.095L143.21 111.838L145.559 110.33L164.398 139.666L162.049 141.174L160.6 138.918L154.727 142.689L153.278 140.432L159.151 136.661L157.702 134.404L143.607 143.455L145.057 145.712L150.929 141.941L152.378 144.197L146.506 147.969L147.955 150.225L145.606 151.734L126.767 122.398ZM105.625 135.974L107.974 134.466L109.424 136.722L123.518 127.671L122.069 125.415L124.418 123.906L143.257 153.242L140.908 154.751L139.459 152.494L133.586 156.265L132.137 154.009L138.009 150.238L136.56 147.981L122.466 157.032L123.915 159.289L129.788 155.517L131.237 157.774L125.364 161.545L126.813 163.802L124.464 165.31L105.625 135.974ZM84.4837 149.551L86.8328 148.042L88.282 150.299L102.376 141.248L100.927 138.991L103.276 137.483L122.115 166.819L119.766 168.327L118.317 166.071L112.444 169.842L110.995 167.585L116.868 163.814L115.419 161.557L101.324 170.608L102.773 172.865L108.646 169.094L110.095 171.35L104.223 175.122L105.672 177.378L103.323 178.887L84.4837 149.551ZM79.7856 152.568L82.1347 151.059L100.974 180.395L98.6245 181.904L79.7856 152.568Z" fill="#F8F8F8" fill-opacity="0.1"/>
<path d="M186.546 55.3243L181.195 58.7607C182.027 59.1681 182.766 59.772 183.297 60.598L200.686 87.6776L194.814 91.4488C194.165 91.8652 193.965 92.7097 194.364 93.3314L201.61 104.615C202.009 105.236 202.86 105.405 203.509 104.989L209.381 101.217L225.322 126.04C225.852 126.866 226.094 127.79 226.118 128.716L231.469 125.28C232.765 124.448 233.168 122.759 232.369 121.515L190.344 56.0724C189.545 54.8279 187.841 54.4924 186.546 55.3243Z" fill="#F8F8F8" fill-opacity="0.1"/>
<path d="M211.853 128.315C212.502 127.899 212.703 127.056 212.303 126.433C211.903 125.81 211.052 125.642 210.404 126.059C209.755 126.475 209.554 127.318 209.954 127.941C210.354 128.564 211.204 128.732 211.853 128.315Z" fill="#F8F8F8" fill-opacity="0.1"/>
<path d="M175.945 116.315L170.073 120.086L168.623 117.829L174.496 114.058L173.047 111.801L158.952 120.852L160.402 123.109L166.274 119.338L167.723 121.594L161.851 125.366L163.3 127.622L177.394 118.571L175.945 116.315Z" fill="#F8F8F8" fill-opacity="0.1"/>
<path d="M170.149 107.288L164.276 111.059L162.827 108.803L168.699 105.031L167.25 102.775L153.156 111.826L154.605 114.082L160.478 110.311L161.927 112.568L156.054 116.339L157.503 118.596L171.598 109.545L170.149 107.288Z" fill="#F8F8F8" fill-opacity="0.1"/>
<path d="M94.3995 203.74C95.0482 203.324 95.2496 202.481 94.8495 201.858C94.4493 201.235 93.599 201.067 92.9504 201.484C92.3017 201.9 92.1002 202.743 92.5004 203.366C92.9006 203.99 93.7508 204.157 94.3995 203.74Z" fill="#F8F8F8" fill-opacity="0.1"/>
<path d="M59.62 149.581C60.2687 149.165 60.4702 148.322 60.07 147.699C59.6698 147.076 58.8196 146.908 58.1709 147.325C57.5222 147.741 57.3207 148.584 57.7209 149.207C58.1211 149.83 58.9713 149.998 59.62 149.581Z" fill="#F8F8F8" fill-opacity="0.1"/>
</g>
<defs>
<clipPath id="clip0_610_172">
<rect width="214.962" height="206.504" fill="white" transform="translate(0 116.155) rotate(-32.7074)"/>
</clipPath>
</defs>
</svg>
